<?xml version="1.0" encoding="UTF-8"?><svg xmlns="http://www.w3.org/2000/svg" viewBox="0 0 226.77165 226.77165"><defs><style>.uuid-b99b5558-80f1-40f6-a7c0-2e39316da3f5{fill:#e42013;}.uuid-6db98034-cd8c-412b-beb3-ae5e888ca03b{font-size:35px;}.uuid-6db98034-cd8c-412b-beb3-ae5e888ca03b,.uuid-9839a618-e319-4117-912c-f89df7e65d00{font-family:MuseoSans-900, 'Museo Sans';}.uuid-6db98034-cd8c-412b-beb3-ae5e888ca03b,.uuid-9839a618-e319-4117-912c-f89df7e65d00,.uuid-3dc195f5-244a-48cc-a35c-287ea5151ac4{fill:#496dac;}.uuid-9839a618-e319-4117-912c-f89df7e65d00{font-size:35.65914px;}.uuid-bce14b76-d7cc-40e4-99eb-2f1e112aadda{fill:#fde9e8;stroke:#e42013;stroke-miterlimit:10;}</style></defs><g id="uuid-09042bc5-767e-48a6-90c3-4baa344faf5a"><circle class="uuid-bce14b76-d7cc-40e4-99eb-2f1e112aadda" cx="113.25689" cy="113.38583" r="103.9906"/></g><g id="uuid-39a12069-dff9-48d5-8de3-ae11a745ee87"><path class="uuid-b99b5558-80f1-40f6-a7c0-2e39316da3f5" d="M137.19308,115.77854v-13.54491c0-18.2425,14.97346-20.29715,22.72206-20.64624,3.01246-.1357,6.05442.62863,6.09991.73648,3.10502,7.36138,3.99466,12.17593,3.99466,12.17593,0,0-4.04692-1.16873-8.2378-1.00544-3.92963.15314-11.06351.98387-11.06351,9.06715v13.21702l.01267,45.2702s-5.50792,5.73036-13.52801,10.51874c-.2024.12084,0-55.78895,0-55.78895Z"/><rect class="uuid-b99b5558-80f1-40f6-a7c0-2e39316da3f5" x="84.44475" y="106.49847" width="78.45806" height="9.32211"/><path class="uuid-3dc195f5-244a-48cc-a35c-287ea5151ac4" d="M100.01235,98.65009c-9.39824,0-17.04261-7.6444-17.04261-17.04269,0-9.39654,7.64437-17.04094,17.04261-17.04094,9.39649,0,17.04086,7.6444,17.04086,17.04094,0,9.39829-7.64437,17.04269-17.04086,17.04269ZM100.01235,73.86692c-4.26939,0-7.74219,3.47282-7.74219,7.74048,0,4.26941,3.47281,7.74223,7.74219,7.74223,4.26764,0,7.74045-3.47282,7.74045-7.74223,0-4.26766-3.47281-7.74048-7.74045-7.74048Z"/><path class="uuid-3dc195f5-244a-48cc-a35c-287ea5151ac4" d="M100.01235,157.76321c-9.39824,0-17.04261-7.6444-17.04261-17.04094,0-9.39829,7.64437-17.04269,17.04261-17.04269,9.39649,0,17.04086,7.6444,17.04086,17.04269,0,9.39654-7.64437,17.04094-17.04086,17.04094ZM100.01235,132.98004c-4.26939,0-7.74219,3.47282-7.74219,7.74223,0,4.26766,3.47281,7.74048,7.74219,7.74048,4.26764,0,7.74045-3.47282,7.74045-7.74048,0-4.26941-3.47281-7.74223-7.74045-7.74223Z"/><rect class="uuid-3dc195f5-244a-48cc-a35c-287ea5151ac4" x="95.35055" y="96.28821" width="9.32207" height="29.74263"/><path class="uuid-b99b5558-80f1-40f6-a7c0-2e39316da3f5" d="M71.85082,128.20054c-9.39649,0-17.04086-7.6444-17.04086-17.04094s7.64437-17.04094,17.04086-17.04094,17.03912,7.6444,17.03912,17.04094-7.64262,17.04094-17.03912,17.04094ZM71.85082,103.41911c-4.26764,0-7.74045,3.47282-7.74045,7.74048s3.47281,7.74048,7.74045,7.74048,7.7387-3.47282,7.7387-7.74048-3.47106-7.74048-7.7387-7.74048Z"/></g><g id="uuid-b30111ad-2495-40b4-a600-5e30b48281a6"><text class="uuid-9839a618-e319-4117-912c-f89df7e65d00" transform="translate(42.79659 105.93075) rotate(-73.76756)"><tspan x="0" y="0">E</tspan></text><text class="uuid-9839a618-e319-4117-912c-f89df7e65d00" transform="translate(47.02558 86.9902) rotate(-54.25765)"><tspan x="0" y="0">M</tspan></text><text class="uuid-9839a618-e319-4117-912c-f89df7e65d00" transform="translate(65.10272 62.72345) rotate(-34.09509)"><tspan x="0" y="0">P</tspan></text><text class="uuid-9839a618-e319-4117-912c-f89df7e65d00" transform="translate(82.30671 50.62452) rotate(-16.68483)"><tspan x="0" y="0">R</tspan></text><text class="uuid-9839a618-e319-4117-912c-f89df7e65d00" transform="translate(104.07063 44.0945) rotate(-.17883)"><tspan x="0" y="0">E</tspan></text><text class="uuid-9839a618-e319-4117-912c-f89df7e65d00" transform="translate(123.45557 43.2686) rotate(17.77257)"><tspan x="0" y="0">N</tspan></text><text class="uuid-9839a618-e319-4117-912c-f89df7e65d00" transform="translate(147.96099 51.38615) rotate(35.57277)"><tspan x="0" y="0">E</tspan></text><text class="uuid-9839a618-e319-4117-912c-f89df7e65d00" transform="translate(164.14497 62.12547) rotate(53.05926)"><tspan x="0" y="0">U</tspan></text><text class="uuid-9839a618-e319-4117-912c-f89df7e65d00" transform="translate(179.17614 81.94508) rotate(71.95985)"><tspan x="0" y="0">R</tspan></text><text class="uuid-9839a618-e319-4117-912c-f89df7e65d00" transform="translate(186.21311 103.6608) rotate(88.42796)"><tspan x="0" y="0">S</tspan></text><path class="uuid-3dc195f5-244a-48cc-a35c-287ea5151ac4" d="M17.26682,120.55003l.33105-15.61328,5.34766.11377-.19922,9.375,5.34668.11328.16504-7.771,5.34668.11426-.16504,7.77051,9.44727.2002-.13281,6.23828-25.4873-.54102Z"/><path class="uuid-3dc195f5-244a-48cc-a35c-287ea5151ac4" d="M19.15061,95.92796l4.46582-15.34033,5.13672,1.49512-2.72168,9.34766,4.45117,1.29639,2.17383-7.46533,5.13574,1.49512-2.17285,7.46484,4.62207,1.3457,2.86133-9.82715,5.13574,1.49463-4.60449,15.82031-24.4834-7.12695Z"/><path class="uuid-3dc195f5-244a-48cc-a35c-287ea5151ac4" d="M28.85569,68.59495l3.95801-5.49805,10.90527,3.28125c1.66406.49463,4.16406,1.41602,4.16406,1.41602l.04199-.05811s-1.66699-2.07861-2.66504-3.5l-6.57227-9.2998,3.95801-5.49854,21.89844,13.21533-3.64551,5.06396-9.77539-6.07031c-1.64648-1.00928-3.47363-2.49951-3.47363-2.49951l-.04102.05762s1.66992,2.25684,2.63867,3.65723l4.42871,6.48242-3.125,4.34082-7.55273-2.14209c-1.63574-.47412-4.30566-1.3418-4.30566-1.3418l-.04102.05762s1.99219,1.25928,3.47168,2.5l8.86035,7.34424-3.66602,5.09277-19.46191-16.60107Z"/><path class="uuid-3dc195f5-244a-48cc-a35c-287ea5151ac4" d="M53.29514,39.93284l8.76953-5.93506c4.10352-2.77783,8.91797-1.64453,11.7959,2.60742,2.87695,4.25195,2.18066,9.20117-1.92383,11.97852l-3.60254,2.43848,4.41602,6.52539-5.16699,3.49707-14.28809-21.11182ZM67.87522,44.87425c1.80176-1.21875,1.86816-3.02881.72949-4.71143-1.13965-1.68359-2.80469-2.23535-4.51758-1.07617l-2.62793,1.77832,3.87695,5.72852,2.53906-1.71924Z"/><path class="uuid-3dc195f5-244a-48cc-a35c-287ea5151ac4" d="M77.86057,25.33616l8.50781-2.54785c2.49414-.74658,3.74121-.93408,4.92285-.84082,3.08496.22998,5.57422,2.20264,6.63867,5.75537.77734,2.59668.39648,5.80127-1.66113,7.75732l.02051.06836s.47461.3418,1.36328,1.19287l7.30664,7.11914-6.66211,1.99512-6.80469-6.93457-2.80273.83936,2.46582,8.23389-5.97852,1.79053-7.31641-24.42871ZM89.75218,33.83811c1.91309-.57373,2.79102-1.99023,2.20801-3.93848-.55273-1.84424-1.56348-2.73291-4.56934-1.83252l-2.01562.60352,1.78027,5.94482,2.59668-.77734Z"/><path class="uuid-3dc195f5-244a-48cc-a35c-287ea5151ac4" d="M106.98264,18.59104l15.97266-.05225.01758,5.34766-9.73438.03271.01562,4.63525,7.77344-.02588.01758,5.34814-7.77344.02539.0166,4.81348,10.23242-.0332.01758,5.34863-16.47168.05371-.08398-25.49365Z"/><path class="uuid-3dc195f5-244a-48cc-a35c-287ea5151ac4" d="M134.08811,19.90013l6.01172,1.92578,3.08984,13.49756c.43945,1.90137.71094,4.7959.71094,4.7959l.06738.02246s.56543-2.70215,1.05566-4.22998l3.63379-11.34375,5.94336,1.9043-7.7793,24.28223-5.97754-1.91504-3.13574-13.47363c-.43848-1.90137-.70898-4.79688-.70898-4.79688l-.06836-.02148s-.56641,2.70215-1.05566,4.22998l-3.62305,11.30908-5.94336-1.9043,7.7793-24.28223Z"/><path class="uuid-3dc195f5-244a-48cc-a35c-287ea5151ac4" d="M165.22679,32.39475l12.99023,9.29199-3.11035,4.3501-7.91699-5.6626-2.69531,3.76953,6.32129,4.52148-3.1123,4.3501-6.32129-4.52148-2.7998,3.91406,8.32227,5.95312-3.11035,4.34961-13.39746-9.58203,14.83008-20.73389Z"/><path class="uuid-3dc195f5-244a-48cc-a35c-287ea5151ac4" d="M186.10862,48.91575l3.74902,4.9873-12.88184,9.68457c-2.1377,1.60645-2.22852,3.85986-.62109,5.99805,1.60742,2.13721,3.79688,2.67676,5.93457,1.06934l12.88281-9.68359,3.74902,4.98779-12.88281,9.68408c-4.58887,3.44922-10.36621,2.52832-14.22168-2.60156-3.90039-5.18701-3.17871-10.99219,1.40918-14.44141l12.88281-9.68457Z"/><path class="uuid-3dc195f5-244a-48cc-a35c-287ea5151ac4" d="M204.34788,76.90208l2.74805,8.44434c.80566,2.4751,1.02246,3.71729.95703,4.90039-.15625,3.08838-2.06934,5.62402-5.5957,6.77197-2.57715.83789-5.78906.5332-7.79297-1.47705l-.06738.02246s-.33105.48291-1.16113,1.38965l-6.94238,7.47168-2.15234-6.61084,6.77051-6.96631-.90527-2.78125-8.17188,2.66016-1.93066-5.93408,24.24414-7.89111ZM196.13206,88.98948c.61816,1.89893,2.05469,2.74365,3.98828,2.11475,1.83008-.59668,2.69531-1.62744,1.72363-4.61133l-.65137-2.00098-5.90039,1.92041.83984,2.57715Z"/><path class="uuid-3dc195f5-244a-48cc-a35c-287ea5151ac4" d="M194.28343,107.82884s-2.56055,2.96045-2.47168,6.16895c.03516,1.28369.57227,2.65967,2.10449,2.61865,3.03125-.08301,2.61133-11.56006,10.4541-11.7749,4.70605-.12744,7.91504,3.74512,8.05371,8.80713.14941,5.49023-2.66406,8.27832-2.66406,8.27832l-5.16992-2.49805s2.17578-2.62891,2.09277-5.69482c-.03613-1.28271-.64453-2.69336-2.07129-2.65527-3.20801.08789-2.32422,11.55225-10.38184,11.77197-4.24219.11621-8.00293-3.02734-8.16016-8.76807-.16309-5.98926,3.38281-9.40381,3.38281-9.40381l4.83105,3.1499Z"/></g><g id="uuid-fcdc0d05-2d7a-4229-a714-eeadc3be59b0"><text class="uuid-6db98034-cd8c-412b-beb3-ae5e888ca03b" transform="translate(64.55518 199.05844) rotate(25.06247)"><tspan x="0" y="0">E</tspan></text><text class="uuid-6db98034-cd8c-412b-beb3-ae5e888ca03b" transform="translate(90.82357 210.46986) rotate(6.18228)"><tspan x="0" y="0">N</tspan></text><text class="uuid-6db98034-cd8c-412b-beb3-ae5e888ca03b" transform="translate(125.74896 212.44141) rotate(-12.93188)"><tspan x="0" y="0">T</tspan></text><text class="uuid-6db98034-cd8c-412b-beb3-ae5e888ca03b" transform="translate(153.71703 204.83132) rotate(-29.72133)"><tspan x="0" y="0">E</tspan></text><text class="uuid-6db98034-cd8c-412b-beb3-ae5e888ca03b" transform="translate(177.39921 190.0926) rotate(-46.32355)"><tspan x="0" y="0">E</tspan></text><path class="uuid-3dc195f5-244a-48cc-a35c-287ea5151ac4" d="M55.61497,157.92307l4.6709,4.73242-4.96484,10.01465c-.75195,1.5293-2.05371,3.79785-2.05371,3.79785l.0498.0498s2.28516-1.27148,3.82422-2.00391l10.07812-4.83496,4.67188,4.7334-16.38281,19.02246-4.30273-4.35938,7.47852-8.46387c1.24707-1.42773,2.99023-2.9502,2.99023-2.9502l-.05078-.0498s-2.45703,1.24609-3.97266,1.95312l-6.99902,3.22168-3.6875-3.73535,3.31152-6.95801c.72754-1.50488,2.00684-3.94629,2.00684-3.94629l-.04883-.0498s-1.5459,1.72266-2.99023,2.9502l-8.55957,7.36816-4.32812-4.38379,19.25879-16.1084Z"/><path class="uuid-3dc195f5-244a-48cc-a35c-287ea5151ac4" d="M77.81809,177.63304l14.2041,6.63965-2.22363,4.75684-8.65625-4.04688-1.92676,4.12207,6.91211,3.23145-2.22266,4.75586-6.91211-3.23145-2.00195,4.28125,9.10059,4.25391-2.22363,4.75586-14.64941-6.84863,10.59961-22.66992Z"/><path class="uuid-3dc195f5-244a-48cc-a35c-287ea5151ac4" d="M96.44602,185.90647l6.16016.66797,5.62891,12.37012c.79688,1.74219,1.62695,4.47266,1.62695,4.47266l.07031.00781s.01172-2.70996.18164-4.27637l1.26172-11.62207,6.08838.66113-2.7002,24.87988-6.12354-.66406-5.66699-12.33984c-.79688-1.74023-1.62695-4.47168-1.62695-4.47168l-.06934-.00781s-.0127,2.70996-.18262,4.27637l-1.25879,11.58691-6.08887-.66016,2.69922-24.88086Z"/><path class="uuid-3dc195f5-244a-48cc-a35c-287ea5151ac4" d="M128.86155,191.44065l-7.40137,1.69922-1.1748-5.11621,20.77051-4.76953,1.1748,5.11621-7.40137,1.69922,4.42578,19.27051-5.96875,1.37012-4.4248-19.26953Z"/><path class="uuid-3dc195f5-244a-48cc-a35c-287ea5151ac4" d="M143.85764,181.6428l13.61523-7.77637,2.60449,4.55957-8.29785,4.73828,2.25684,3.9502,6.62598-3.78418,2.60449,4.55957-6.62598,3.78418,2.34277,4.10254,8.72266-4.98242,2.60449,4.55859-14.04102,8.02051-12.41211-21.73047Z"/><path class="uuid-3dc195f5-244a-48cc-a35c-287ea5151ac4" d="M161.32835,170.67893l10.83203-11.3418,3.79688,3.62695-6.59961,6.91211,3.29004,3.14258,5.27148-5.51855,3.79688,3.62598-5.26953,5.51855,3.41699,3.26465,6.93848-7.2666,3.79688,3.62695-11.16992,11.69629-18.10059-17.28711Z"/><circle class="uuid-b99b5558-80f1-40f6-a7c0-2e39316da3f5" cx="33.33918" cy="143.99755" r="4.17884"/><circle class="uuid-b99b5558-80f1-40f6-a7c0-2e39316da3f5" cx="192.85477" cy="144.61128" r="4.17884"/></g></svg>